<svg width="360" height="240" viewBox="0 0 360 240">
          <line x1="20" y1="220" x2="340" y2="220" stroke="#999" stroke-width="1"/>
          <line x1="20" y1="20"   x2="20"   y2="220" stroke="#999" stroke-width="1"/>
        <polyline fill="none" stroke="#7c3aed" stroke-width="2" points="340.0,92.9 334.1,93.8 328.1,94.7 310.4,97.5 298.5,99.5 298.5,97.9 298.5,96.3 298.5,94.7 292.6,95.7 286.7,96.7 280.7,97.8 274.8,98.9 274.8,97.1 268.9,98.3 268.9,96.5 268.9,94.6 268.9,92.7 263.0,89.8 263.0,87.7 251.1,87.8 245.2,89.0 245.2,86.7 245.2,84.3 245.2,81.8 245.2,79.3 245.2,76.6 239.3,77.7 239.3,74.9 239.3,72.0 239.3,69.0 233.3,70.0 227.4,71.1 227.4,67.8 221.5,68.9 215.6,70.0 215.6,66.5 197.8,66.2 168.1,68.5 168.1,63.8 168.1,58.7 162.2,60.0 162.2,54.5 156.3,55.7 150.4,57.0 144.4,58.5 138.5,60.0 132.6,61.7 132.6,54.8 120.7,58.1 114.8,60.0 114.8,51.6 108.9,53.3 108.9,43.5 108.9,32.5 108.9,20.0 103.0,20.0 97.0,20.0 91.1,20.0 85.2,20.0 79.3,20.0 20.0,20.0"/></svg>