<svg width="360" height="240" viewBox="0 0 360 240">
          <line x1="20" y1="220" x2="340" y2="220" stroke="#999" stroke-width="1"/>
          <line x1="20" y1="20"   x2="20"   y2="220" stroke="#999" stroke-width="1"/>
        <polyline fill="none" stroke="#16a34a" stroke-width="2" points="20.0,220.0 20.0,183.0 20.0,164.4 51.0,164.4 51.0,160.7 61.3,160.7 61.3,157.0 61.3,149.6 71.6,149.6 71.6,131.1 81.9,131.1 81.9,127.4 102.6,127.4 112.9,108.9 123.2,97.8 133.5,97.8 133.5,90.4 143.9,90.4 143.9,83.0 174.8,83.0 174.8,79.3 226.5,79.3 226.5,75.6 236.8,68.1 247.1,68.1 267.7,64.4 298.7,64.4 298.7,60.7 309.0,60.7 309.0,45.9 340.0,45.9 340.0,38.5 340.0,27.4 340.0,20.0"/></svg>